<svg width="141" height="43" viewBox="0 0 141 43" fill="none" xmlns="http://www.w3.org/2000/svg">
<g opacity="0.9">
<g clip-path="url(#clip0_414_34571)">
<path d="M87.4729 33.2296C79.2791 39.2696 67.4027 42.491 57.1767 42.491C42.8398 42.491 29.9309 37.1884 20.1662 28.3695C19.3983 27.6765 20.0866 26.7307 21.0067 27.2715C31.544 33.4028 44.5746 37.0924 58.0359 37.0924C67.1124 37.0924 77.0995 35.2149 86.2813 31.3169C87.6696 30.727 88.8284 32.2253 87.4729 33.2319" fill="#192509"/>
<path d="M90.8792 29.3316C89.8351 27.9925 83.9566 28.6995 81.3158 29.0133C80.5128 29.1116 80.3887 28.4116 81.1121 27.9083C85.7944 24.612 93.4802 25.5648 94.3745 26.6675C95.2711 27.7795 94.1404 35.4817 89.7414 39.1573C89.0672 39.7215 88.4211 39.4218 88.7231 38.6726C89.711 36.2051 91.928 30.6754 90.8769 29.3316" fill="#192509"/>
<path d="M81.5007 4.63999V1.43502C81.5007 0.950413 81.8683 0.625 82.3108 0.625H96.6547C97.1159 0.625 97.4835 0.957437 97.4835 1.43502V4.1788C97.4764 4.63999 97.0902 5.24166 96.4042 6.19215L88.9712 16.8044C91.7337 16.7365 94.6484 17.1485 97.1534 18.5602C97.7176 18.8786 97.8721 19.3468 97.9142 19.8057V23.2237C97.9142 23.6896 97.3992 24.2374 96.8584 23.9541C92.4454 21.6411 86.5833 21.3883 81.7044 23.9775C81.2081 24.2467 80.686 23.7083 80.686 23.2401V19.993C80.686 19.4709 80.6931 18.5813 81.2128 17.79L89.8234 5.44065H82.3295C81.8683 5.44065 81.5007 5.11524 81.5007 4.63765" fill="#192509"/>
<path d="M29.1771 24.6308H24.8133C24.3966 24.6004 24.0641 24.2867 24.0337 23.8887V1.49133C24.0337 1.04418 24.4083 0.688335 24.8741 0.688335H28.943C29.3667 0.707064 29.7038 1.03248 29.7343 1.43749V4.36621H29.8139C30.8767 1.53581 32.8714 0.217773 35.5589 0.217773C38.2465 0.217773 39.9953 1.53816 41.2244 4.36621C42.2803 1.53581 44.6799 0.217773 47.2504 0.217773C49.0788 0.217773 51.0805 0.971609 52.3025 2.66657C53.6838 4.55116 53.4005 7.28791 53.4005 9.68754L53.3935 23.8231C53.3935 24.2703 53.0189 24.6331 52.553 24.6331H48.1962C47.7608 24.6027 47.4096 24.2515 47.4096 23.8231V11.949C47.4096 11.0032 47.4962 8.64809 47.2879 7.75145C46.9625 6.24846 45.9862 5.82472 44.722 5.82472C43.6662 5.82472 42.5612 6.52939 42.114 7.66014C41.6669 8.78855 41.709 10.6802 41.709 11.9514V23.8208C41.709 24.2679 41.3344 24.6308 40.8686 24.6308H36.5118C36.0693 24.6004 35.7252 24.2492 35.7252 23.8208L35.7181 11.9514C35.7181 9.45343 36.1302 5.77789 33.0306 5.77789C29.9309 5.77789 30.0176 9.36212 30.0176 11.9514V23.8208C30.0176 24.2679 29.643 24.6308 29.1771 24.6308Z" fill="#192509"/>
<path d="M109.833 0.215332C116.308 0.215332 119.813 5.77545 119.813 12.8456C119.813 19.9157 115.941 25.0966 109.833 25.0966C103.725 25.0966 100.012 19.5365 100.012 12.6068C100.012 5.67713 103.517 0.215332 109.833 0.215332ZM109.87 4.78751C106.654 4.78751 106.452 9.17005 106.452 11.9021C106.452 14.6342 106.41 20.4823 109.835 20.4823C113.26 20.4823 113.377 15.7696 113.377 12.8971C113.377 11.0078 113.298 8.74865 112.726 6.95537C112.235 5.39619 111.259 4.78985 109.873 4.78985" fill="#192509"/>
<path d="M128.208 24.6307H123.863C123.428 24.6003 123.077 24.2491 123.077 23.8207L123.07 1.41866C123.107 1.00663 123.468 0.688235 123.91 0.688235H127.955C128.337 0.706964 128.648 0.964485 128.735 1.31331V4.73834H128.815C130.037 1.67618 131.748 0.215332 134.761 0.215332C136.718 0.215332 138.629 0.920004 139.855 2.85376C140.998 4.64704 140.998 7.66004 140.998 9.82556V23.9237C140.949 24.317 140.586 24.6284 140.157 24.6284H135.782C135.384 24.5979 135.051 24.3029 135.009 23.9237V11.7593C135.009 9.31052 135.292 5.72629 132.277 5.72629C131.214 5.72629 130.24 6.43799 129.753 7.51958C129.14 8.88912 129.06 10.2516 129.06 11.7617V23.823C129.053 24.2702 128.674 24.633 128.208 24.633" fill="#192509"/>
<path d="M70.0669 13.9319V12.9861C66.9111 12.9861 63.5797 13.6603 63.5797 17.3804C63.5797 19.2649 64.556 20.5408 66.2322 20.5408C67.4589 20.5408 68.5592 19.787 69.2522 18.5579C70.1114 17.0479 70.0693 15.6292 70.0693 13.9296M74.4705 24.5652C74.1826 24.8227 73.7659 24.8415 73.4404 24.6705C71.9913 23.4672 71.7338 22.91 70.9355 21.7606C68.5429 24.2023 66.8479 24.9328 63.7412 24.9328C60.0704 24.9328 57.2119 22.6689 57.2119 18.1318C57.2119 14.5898 59.134 12.1784 61.8637 11.0008C64.2329 9.95671 67.5409 9.77411 70.0693 9.48381V8.9196C70.0693 7.8825 70.1488 6.65576 69.5425 5.75912C69.0087 4.95612 67.9904 4.62368 67.0937 4.62368C65.4315 4.62368 63.9449 5.47584 63.5821 7.24337C63.5095 7.63668 63.2192 8.02296 62.8282 8.04169L58.5932 7.58752C58.2373 7.50792 57.844 7.21996 57.9423 6.67215C58.9162 1.54747 63.5493 0 67.6977 0C69.8211 0 72.5953 0.564206 74.2715 2.17254C76.3949 4.15546 76.1936 6.80091 76.1936 9.67812V16.479C76.1936 18.5228 77.0411 19.4195 77.8394 20.5245C78.1226 20.9178 78.1835 21.3907 77.8277 21.6833C76.9381 22.4254 75.3531 23.8067 74.4822 24.5792L74.4705 24.5675" fill="#192509"/>
<path d="M12.8577 13.9319V12.9861C9.70188 12.9861 6.37049 13.6603 6.37049 17.3804C6.37049 19.2649 7.34673 20.5408 9.02296 20.5408C10.2497 20.5408 11.35 19.787 12.043 18.5579C12.9022 17.0479 12.86 15.6292 12.86 13.9296M17.2613 24.5652C16.9733 24.8227 16.5566 24.8415 16.2312 24.6705C14.7821 23.4672 14.5246 22.91 13.7262 21.7606C11.3336 24.2023 9.63867 24.9328 6.53202 24.9328C2.86117 24.9328 0.00268555 22.6689 0.00268555 18.1318C0.00268555 14.5898 1.92473 12.1784 4.65446 11.0008C7.02365 9.95671 10.3316 9.77411 12.86 9.48381V8.9196C12.86 7.8825 12.9396 6.65576 12.3333 5.75912C11.7995 4.95612 10.7811 4.62368 9.88448 4.62368C8.2223 4.62368 6.7357 5.47584 6.37283 7.24337C6.30025 7.63668 6.00996 8.02296 5.61899 8.04169L1.38394 7.58752C1.02809 7.50792 0.634784 7.21996 0.73311 6.67215C1.70701 1.54747 6.34005 0 10.4885 0C12.6119 0 15.3861 0.564206 17.0623 2.17254C19.1857 4.15546 18.9844 6.80091 18.9844 9.67812V16.479C18.9844 18.5228 19.8318 19.4195 20.6301 20.5245C20.9134 20.9178 20.9743 21.3907 20.6184 21.6833C19.7288 22.4254 18.1439 23.8067 17.273 24.5792L17.2613 24.5675" fill="#192509"/>
</g>
</g>
<defs>
<clipPath id="clip0_414_34571">
<rect width="141" height="42.491" fill="white"/>
</clipPath>
</defs>
</svg>
