<svg width="139" height="39" viewBox="0 0 139 39" fill="none" xmlns="http://www.w3.org/2000/svg">
<path d="M4.19293 19.2405C4.19293 14.8685 4.14566 15.4069 4.09602 13.3729C3.99912 10.4241 3.61386 7.06658 3.08442 6.15179C2.60226 5.33919 1.73484 5.1348 1.20541 5.1348C0.770515 5.1348 0.385258 5.18465 0.193811 5.237L0 4.6263C1.63794 3.81371 3.2286 3.05097 4.81927 2.13618C6.07431 1.27124 7.90605 0 8.77347 0L9.25564 0.3041C9.44945 1.32109 9.54399 3.50712 9.54399 5.79534C9.54399 7.87917 9.39981 11.7153 9.39981 17.411C10.3169 16.4962 11.1347 15.8356 12.1486 15.1751C13.1602 14.5145 14.6067 13.854 16.1501 13.854C18.0291 13.854 19.8136 14.7189 21.1632 16.04C23.6213 18.4304 24.4887 21.6833 24.4887 25.1406C24.4887 29.717 22.4159 33.274 19.9081 35.2581C17.547 37.0877 15.5214 37.6485 13.5927 37.6485C11.6641 37.6485 9.68817 36.5817 8.43549 35.1584C7.0859 35.7691 5.35106 36.5318 3.95185 37.4965L3.42241 37.2422C3.95185 34.954 4.19293 31.2949 4.19293 26.3121V19.2405ZM9.49672 27.9847C9.6409 32.3069 9.97888 33.8822 10.7021 34.8992C11.4726 36.0184 12.7513 36.2577 13.9567 36.2577C15.5001 35.647 16.5354 34.797 17.1617 33.5257C17.788 32.3044 18.464 29.56 18.464 26.2548C18.464 22.9496 17.6439 20.3074 16.1501 18.8841C14.9447 17.7151 13.7889 17.6303 12.5339 17.4758C11.3781 17.578 10.1963 18.5875 9.44945 19.7839V23.2562C9.44945 24.8315 9.44945 26.4068 9.49672 27.9847Z" fill="#F2E4CE"/>
<path d="M27.0909 34.949C27.8142 33.7301 28.2491 31.6438 28.2491 27.4263C28.2491 22.7501 27.9607 20.8184 27.6227 19.8014C27.2375 18.5825 26.4646 18.074 25.6941 18.074C25.2592 18.074 24.8267 18.1238 24.6329 18.1762L24.4887 17.6178C25.5499 17.0595 27.3817 16.1946 28.4902 15.4817C30.0336 14.4148 32.2506 13.0912 32.9242 13.0912C33.0211 13.0912 33.2125 13.1411 33.2621 13.2956C33.456 14.0085 33.456 16.1422 33.456 17.7699V20.6165C34.1792 18.9389 35.4319 16.8028 36.6846 15.2274C37.6489 14.0085 38.3721 13.5499 39.2868 13.5499C41.0713 13.5499 42.324 16.2444 42.324 18.3282C42.324 19.5496 41.5535 20.8956 40.445 20.8956C38.9512 20.8956 37.5685 20.0656 35.9779 20.0656C35.7368 20.0656 35.3633 20.3024 35.0419 20.6264C34.6046 21.2421 33.456 22.5233 33.456 25.1655V26.5115C33.456 28.8496 33.5032 31.9504 34.2265 33.8323C34.7086 35.0512 36.011 36.3225 38.3721 36.6291L38.3249 37.2397C36.3489 37.2397 32.8296 37.0877 30.7568 37.0877C28.684 37.0877 26.7553 37.1899 24.7321 37.2397L24.6849 36.6814C25.505 36.477 26.6135 35.8165 27.0957 34.954L27.0909 34.949Z" fill="#F2E4CE"/>
<path d="M55.6756 34.5926C58.1834 34.5926 60.1593 33.1693 61.9414 31.0331L62.4708 31.4394C60.9274 33.5233 57.843 37.6934 53.2152 37.6934C51.1424 37.6934 49.1168 37.1849 47.4789 36.1181C44.4417 34.1364 42.7069 30.6792 42.7069 25.5942C42.7069 19.5446 46.8998 13.7991 52.9741 13.7991C58.181 13.7991 60.9771 18.4753 61.7949 22.7975C61.8421 23.0019 61.8918 23.2038 61.8918 23.3559C61.8918 23.66 61.7476 23.8145 61.6507 23.9142L48.7315 24.2183V25.2851C48.7315 31.3846 51.7191 34.5876 55.6733 34.5876L55.6756 34.5926ZM48.7812 22.4436C50.7571 22.4436 54.4702 22.2915 56.1554 22.0373C56.1554 18.6298 54.8531 15.0853 52.4919 15.0853C50.2749 16.0001 48.7812 18.6323 48.7812 22.446V22.4436Z" fill="#F2E4CE"/>
<path d="M109.16 34.5926C111.668 34.5926 113.644 33.1693 115.426 31.0331L115.955 31.4394C114.412 33.5233 111.328 37.6934 106.7 37.6934C104.627 37.6934 102.601 37.1849 100.964 36.1181C97.9264 34.1364 96.1915 30.6792 96.1915 25.5942C96.1915 19.5446 100.384 13.7991 106.459 13.7991C111.666 13.7991 114.462 18.4753 115.279 22.7975C115.327 23.0019 115.376 23.2038 115.376 23.3559C115.376 23.66 115.232 23.8145 115.135 23.9142L102.216 24.2183V25.2851C102.216 31.3846 105.204 34.5876 109.158 34.5876L109.16 34.5926ZM102.266 22.4436C104.242 22.4436 107.955 22.2915 109.64 22.0373C109.64 18.6298 108.338 15.0853 105.977 15.0853C103.76 16.0001 102.266 18.6323 102.266 22.446V22.4436Z" fill="#F2E4CE"/>
<path d="M68.1386 28.0868C66.5479 24.0712 65.2953 21.0203 64.1868 18.9364C63.7046 17.9693 62.8844 16.8526 62.2108 16.1921C61.4403 15.4817 61.0054 15.1751 60.3791 14.9208L60.476 14.4123C61.5372 14.4622 63.8984 14.5145 65.9712 14.5145C68.1882 14.5145 71.1781 14.3625 72.3835 14.3101V14.8685C71.7572 15.1227 71.0812 15.4268 70.5991 15.9877C70.1169 16.4962 69.9254 17.2066 69.9254 18.1238C69.9254 18.8342 70.1192 19.6992 70.4549 20.6663C71.1781 22.8025 72.0928 25.1904 72.913 27.3266C73.6362 29.2085 74.0498 29.8217 74.3878 30.8387C76.8459 25.502 78.0702 23.1091 78.0702 20.26C77.5408 18.5825 77.009 17.2614 76.4323 16.3965C75.9501 15.6861 75.3238 15.1252 74.7447 14.871L74.792 14.3126C76.1888 14.3625 78.2617 14.517 79.8523 14.517C81.5872 14.517 83.4189 14.4148 85.1538 14.365L85.201 14.9233C84.5747 15.1277 83.9956 15.382 83.5631 15.8905C83.1282 16.3491 82.6957 17.1617 82.6957 18.1263C82.6957 18.8367 82.8895 19.8537 83.2251 20.771C83.8987 22.7526 84.8158 25.2453 85.6359 27.3789C86.3592 29.2609 86.6759 29.7719 87.0139 30.891C89.4719 25.3998 90.7932 22.6529 90.7932 19.3477C90.7932 18.2285 90.5048 17.1118 89.8288 16.2968C89.3467 15.6861 88.5265 15.1776 87.6118 14.8735L87.6591 14.3151C89.2025 14.365 91.5164 14.5195 93.1071 14.5195C94.8419 14.5195 96.5295 14.4173 98.2643 14.3675L98.3116 14.9258C97.6356 15.1801 97.0589 15.5864 95.9977 16.8077C94.5512 18.4853 93.0078 21.6384 91.5637 24.8913L88.2854 32.1099C87.5149 33.8897 86.2599 36.6864 85.2956 38.0075L84.7165 37.9576C83.5111 34.3483 82.0173 30.6867 80.9561 27.9423C80.2825 26.1625 79.6065 24.4352 79.0771 22.8075C78.6918 24.333 77.8244 26.8754 76.9073 29.0091L75.5578 32.1099C74.7872 33.8897 73.5322 36.5842 72.5703 38.0075L71.9912 37.9576C70.7385 34.3483 69.2424 30.8412 68.1339 28.0943L68.1386 28.0868Z" fill="#F2E4CE"/>
<path d="M118.321 34.6948C118.9 33.3214 119.045 31.8981 119.142 30.8312C119.238 29.712 119.286 27.9847 119.286 26.1551C119.286 26.1551 119.238 17.8197 119.189 15.7858C119.092 11.3115 118.995 8.23811 118.369 6.66028C117.983 5.69315 117.066 5.1348 116.152 5.1348C115.863 5.1348 115.478 5.18465 115.284 5.237L115.09 4.6263C116.249 4.01561 118.61 2.99862 120.2 1.93178C121.165 1.22138 123.285 0 123.911 0L124.346 0.3041C124.54 1.42329 124.634 2.84657 124.634 4.16766C124.634 7.52273 124.537 16.2394 124.537 24.6794C124.537 29.0016 124.731 31.8482 125.117 33.2715C125.502 34.6948 126.369 36.2203 128.251 36.6764L127.688 37.1999C126.532 37.1999 123.67 37.0827 121.647 37.0827C119.43 37.0827 116.343 37.2348 115.814 37.2348L115.766 36.6764C116.875 36.32 117.792 35.9137 118.321 34.6948Z" fill="#F2E4CE"/>
<path d="M129.071 34.6948C129.65 33.3214 129.794 31.8981 129.891 30.8312C129.988 29.712 130.035 27.9847 130.035 26.1551C130.035 26.1551 129.988 17.8197 129.938 15.7858C129.841 11.3115 129.744 8.23811 129.118 6.66028C128.733 5.69315 127.816 5.1348 126.901 5.1348C126.613 5.1348 126.225 5.18465 126.034 5.237L125.84 4.6263C126.996 4.01561 129.359 2.99862 130.95 1.93178C131.914 1.22138 134.034 0 134.661 0L135.095 0.3041C135.289 1.42329 135.384 2.84657 135.384 4.16766C135.384 7.52273 135.287 16.2394 135.287 24.6794C135.287 29.0016 135.481 31.8482 135.866 33.2715C136.251 34.6948 137.119 36.2203 139 36.6764L138.953 37.2348C137.795 37.2348 134.422 37.0827 132.396 37.0827C130.179 37.0827 128.22 37.1999 127.69 37.1999L126.516 36.6764C127.624 36.32 128.541 35.9137 129.071 34.6948Z" fill="#F2E4CE"/>
</svg>
